<?xml version="1.0" encoding="utf-8"?>

<!DOCTYPE svg PUBLIC "-//W3C//DTD SVG 1.1//EN" "http://www.w3.org/Graphics/SVG/1.1/DTD/svg11.dtd">
<svg version="1.1" id="Layer_1" xmlns="http://www.w3.org/2000/svg" xmlns:xlink="http://www.w3.org/1999/xlink" x="0px" y="0px"
	 viewBox="0 0 886.1507 1649.5945" enable-background="new 0 0 886.1507 1649.5945" xml:space="preserve">
<g>
	<path d="M261.5924,1225.736c8.73,13.7799,17.1499,27.76,24.75,42.22c0.84,1.61,28,57.45,30.28,61.83
		c10.6499,20.4501,18.6899,42.1901,29.33,62.7101c1.73,3.33,3.4301,3.2,5.89,3.2c23.76,0.01,171.14,0.04,191.25,0.04
		c19.86,0,186.1699-0.3101,220.77,0.33c7.8,0.15,9.11-2.46,9.08-9.23c-0.24-62.8101-0.26-125.63-0.2999-188.45
		c-0.03-45.5901,0-91.1801-0.01-136.77c-0.01-100.28-0.03-200.55-0.03-300.83c0-67.91-0.03-135.82,0.13-203.73
		c0.0099-4.9299-1.4901-7.77-5.76-10.4299c-11.88-7.3801-23.36-15.4102-35.01-23.1602c-49.86-33.17-99.7899-66.24-149.5599-99.5399
		c-19.8301-13.26-40.28-25.61-59.28-40.15c-2.6101-1.99-6.3701-5-11.6101-1.3999c-27.72,19-55.8699,37.3699-83.8699,55.98
		c-54.16,35.99-108.29,72.01-162.5,107.93c-4.26,2.8201-6.02,6.14-6.01,11.3301c0.1399,40.6299-0.03,81.2599-0.03,121.8799
		c-0.01,80.26,0.05,160.51,0.04,240.76c-0.01,98.65-0.05,197.2899-0.1401,295.9299
		C259.0023,1219.6859,259.6725,1222.7059,261.5924,1225.736z"/>
	<path d="M859.4424,555.366c-7.3199-4.6801-14.48-9.6101-21.74-14.4001c-54.64-36.0399-109.2999-72.07-163.9401-108.1099
		c-35.6799-23.53-71.3599-47.04-106.99-70.6401c-14.0699-9.3099-28.02-18.7899-41.95-28.3099c-1.84-1.2699-3.97-2.34-3.9399-5.5299
		c0.1099-13.53,1.9199-27.02,0.8599-40.5901c-0.6899-8.9299,1.3401-18.45,0.1702-26.64c-1.8-12.58,0.6299-24.7799-0.2301-37.1801
		c-0.96-13.8398,0.05-28.21-0.1901-42.21c-0.3599-20.46,0.0801-40.9199-0.1699-61.3699c-0.4199-34.6301,0-69.27,0.28-103.9001
		c0.04-5.52-1.64-11.4199,2.22-16.49c-4.36,0-8.73,0-13.1,0c2.0599,1.91,2.74,4.1001,2.73,7.05c-0.1,31.8201,0.15,63.64,0.01,95.45
		c-0.09,21.79-1.4501,43.6001-0.75,65.3501c0.85,26.28-0.16,52.54,0.41,78.8099c0.29,13.6801,0.7,27.36,0.08,41.08
		c-0.5499,12.1501,0.1,24.3701,0.38,36.5601c0.0901,4.1599-1.9,6.5901-5.24,8.72c-9.75,6.2-19.3501,12.64-28.99,19.02
		c-38.21,25.28-76.3501,50.63-114.6101,75.8201c-34.8398,22.9299-69.5698,46-104.5399,68.73c-24.41,15.86-48.24,32.67-72.94,48.1199
		c-21.92,13.7101-22.05,13.8501-7.41,33.27c0.15,0.1901,0.33,0.3701,0.43,0.5801c1.37,2.99,3.04,2.7,5.52,1
		c5.5701-3.8201,11.4399-7.22,17.0701-10.96c39.1499-26.0701,78.26-52.17,117.3899-78.2701
		c32.27-21.53,64.52-43.0901,96.8101-64.6001c31.37-20.8899,62.8-41.72,94.16-62.6499c2.88-1.92,4.7999-2.47,8.21-0.1101
		c13.79,9.54,28.0499,18.4102,42.04,27.6602c33.23,21.97,66.45,43.9399,99.59,66.0199c60.9199,40.6,121.8,81.26,182.64,122
		c3.4601,2.3099,5.6801,3.01,8.11-1.22c2.76-4.8199,5.9199-9.4401,9.28-13.87C863.8925,559.8959,863.0223,557.6559,859.4424,555.366
		z"/>
	<path d="M824.5524,1405.0759c-14.79,0.33-464.85-0.92-473.4199-0.05c-6.26,0.63-10.3501-1.61-13.15-7.37
		c-4.01-8.23-8.36-16.2899-12.2401-24.58c-17.0599-36.49-32.3499-73.83-52.5099-108.8199c-15.5599-27.01-30.9-54.28-52.9301-76.7401
		c-12.51-12.7699-26.61-24-34.9399-40.3899c-3.72-7.3201-8.77-13.8201-13.95-20.1801c-9.69-11.89-22.13-20.4-37-22.88
		c-12.91-2.15-26.45-2.1799-39.47,1.45c-9.67,2.7001-19.45,6.14-23.58,16.13c-4.27,10.29-11.78,15.03-22,16.9401
		c-2.6201,0.49-5.2401,1-7.78,1.79c-6.2,1.9299-12.8,3.11-18.18,8.4099c11.93,0,23.07,0.29,34.18-0.11
		c5.76-0.21,8.98,1.55,10.33,7.3301c2.23,9.5299,6.35,18.22,13.44,25.1799c3.1,3.04,4.21,6.1,4.27,10.75
		c0.13,10.04-2.37,19.5701-3.82,29.28c-2.18,14.53-6.08,28.91-4.06,43.77c4.48,33.0399,23.57,57.5499,46.91,79.52
		c19.04,17.9199,39.96,33.2999,63.55,46.0399c-5.09,3.62-10.52,3.88-15.53,4.76c-8.33,1.47-14.46,8.16-22.41,9.39
		c-5.42,0.83-6.48,3.1901-6.19,7.34c1.36,19.4301,0.26,38.87,0.48,58.3c0.07,6.12,1.9,7.14,7.35,7.12
		c47.78-0.16,95.55-0.01,143.32-0.13c4.1801-0.01,6.88,1.1,9.9301,4.21c16.58,16.89,32.9099,33.99,48.47,51.8101
		c17.58,20.13,36.05,39.61,49.21,63.1799c2.1699,3.89,5.12,4.3,8.49,2.29c6.6899-3.99,13.66-6.89,22.64-6.39
		c-22.4301-31.83-39.08-65.5499-54.4401-100.0699c11.8601,9.49,20.8601,22,36.5801,29.9299c-5.0701-17.63-15.37-30.2-23.63-44.98
		c5.83,0,10.61,0,15.39,0c38.5601,0.02,77.12,0.05,115.6699,0.0601c82.92,0.02,165.8401,0.0399,248.76,0.0499
		c17.9401,0,35.89,0.02,53.8301-0.09c1.4299-0.01,4.01,0.86,4.8799-0.75c0.3701-0.6801-0.1299-67.85-0.1299-67.85
		C830.1224,1405.5959,827.4624,1405.006,824.5524,1405.0759z M174.3324,1404.7959c3.85-10.25,27.1899-10.2899,36.8201,0
		C198.6224,1404.7959,186.5624,1404.7959,174.3324,1404.7959z"/>
</g>
</svg>
